<svg width="530" height="479.99999999999994" xmlns="http://www.w3.org/2000/svg" xmlns:svg="http://www.w3.org/2000/svg">
 <!-- Created with SVG-edit - http://svg-edit.googlecode.com/ -->
 <g>
  <title>Layer 1</title>
  <path id="svg_3" d="m85.20311,365.43753c0,0 4.42969,-3.48047 4.33986,-3.78518c-0.08983,-0.30472 5.78514,3.78518 5.69531,3.48047c-0.08983,-0.30472 8.31639,-1.91013 8.22656,-2.21484c-0.08983,-0.30472 5.46874,-5.07419 5.37891,-5.37891c-0.08983,-0.30471 4.51952,-2.22654 4.42969,-2.53125c-0.08983,-0.30471 4.51952,-4.44138 4.42969,-4.74609c-0.08983,-0.30471 2.93749,-7.60544 2.84766,-7.91016c-0.08983,-0.30471 6.10155,-2.22654 6.01172,-2.53125c-0.08983,-0.30471 5.46874,-3.17575 5.37891,-3.48047c-0.08983,-0.30471 6.41796,-5.07419 6.32813,-5.37891c-0.08983,-0.30471 10.53124,-2.54294 10.44141,-2.84766c-0.08983,-0.30471 4.51952,-1.91013 4.42969,-2.21484c-0.08983,-0.30471 9.26561,1.88675 9.17578,1.58203c-0.08983,-0.30471 6.10155,5.36721 6.01172,5.0625c-0.08983,-0.30471 2.62108,-0.01169 2.53125,-0.31641c-0.08983,-0.30471 5.15233,-3.80857 5.0625,-4.11328c-0.08983,-0.30471 10.84764,0.62112 10.75781,0.31641c-0.08983,-0.30471 4.20311,0.30471 4.11328,0c-0.08983,-0.30471 -0.54298,4.418 -0.63281,4.11328c-0.08983,-0.30471 -4.02345,3.78518 -4.11328,3.48047c-0.08983,-0.30471 2.62108,4.418 2.53125,4.11328c-0.08983,-0.30471 4.83593,2.20315 4.74609,1.89844c-0.08983,-0.30471 8.6328,-3.17575 8.54297,-3.48047c-0.08983,-0.30471 -2.75782,6.94925 -2.84766,6.64453c-0.08983,-0.30471 1.67186,2.83596 1.67186,3.15237c0,0.31641 6.01172,-1.89844 5.92189,-2.20315c-0.08983,-0.30471 1.67186,2.51956 1.58203,2.21484c-0.08983,-0.30471 5.78515,-0.96091 6.10155,-0.96091c0.31641,0 6.96094,5.69531 6.8711,5.3906c-0.08983,-0.30471 1.03905,12.96097 0.94922,12.65625c-0.08983,-0.30472 5.15233,-2.22653 5.0625,-2.53125c-0.08983,-0.30472 3.2539,3.78518 3.16406,3.48047c-0.08983,-0.30472 -2.44142,3.46878 -2.53125,3.16406c-0.08983,-0.30472 3.5703,1.88675 3.48047,1.58203c-0.08983,-0.30472 9.26562,-5.3906 9.17578,-5.69531c-0.08983,-0.30472 4.51952,1.57034 4.51952,1.57034c0,0 3.79688,-9.80859 3.79688,-9.80859c0,0 4.11328,-4.11328 4.02345,-4.418c-0.08983,-0.30471 4.51952,5.05081 4.42969,4.74609c-0.08983,-0.30471 -0.22657,8.53128 -0.22657,8.84768c0,0.31641 0.31641,6.32813 0.22657,6.02341c-0.08983,-0.30472 -1.17579,4.10159 -1.26563,3.79688c-0.08983,-0.30472 1.35546,6.63284 1.26563,6.32813c-0.08983,-0.30472 -3.39063,4.7344 -3.48047,4.42969c-0.08983,-0.30472 -0.22657,5.05081 -0.31641,4.74609c-0.08983,-0.30472 -2.44142,3.78518 -2.53125,3.48047c-0.08983,-0.30472 -0.22657,24.668 -0.31641,24.36328c-0.08983,-0.30472 0.08983,3.15237 0,2.84766c-0.08983,-0.30472 -7.82032,-1.91013 -7.91016,-2.21484c-0.08983,-0.30472 -2.75782,1.88675 -2.75782,2.20315c0,0.31641 -3.48047,-1.58203 -3.5703,-1.88675c-0.08983,-0.30472 -5.28907,5.68362 -5.37891,5.37891c-0.08983,-0.30472 -3.39064,-1.91013 -3.48047,-2.21484c-0.08983,-0.30472 -2.44142,1.25394 -2.53125,0.94922c-0.08983,-0.30472 -4.65626,-2.54294 -4.74609,-2.84766c-0.08983,-0.30472 -11.6172,2.83597 -11.70703,2.53125c-0.08983,-0.30472 -2.75782,-3.80856 -2.84766,-4.11328c-0.08983,-0.30472 -2.44142,3.15237 -2.53125,2.84766c-0.08983,-0.30472 -5.28907,-4.44138 -5.37891,-4.74609c-0.08983,-0.30472 -2.75782,9.16409 -2.84766,8.85938c-0.08983,-0.30472 -3.07423,0.30472 -3.16406,0c-0.08983,-0.30472 -5.28907,-7.28903 -5.37891,-7.59375c-0.08983,-0.30472 -4.02345,-0.3281 -4.11328,-0.63281c-0.08983,-0.30472 1.98827,5.68362 1.89844,5.37891c-0.08983,-0.30472 -4.65626,1.25394 -4.74609,0.94922c-0.08983,-0.30472 -1.4922,5.36722 -1.58203,5.0625c-0.08983,-0.30472 -4.02345,2.51956 -4.11328,2.21484c-0.08983,-0.30472 -3.07423,-2.85935 -3.16406,-3.16406c-0.08983,-0.30472 -2.75782,4.7344 -2.84766,4.42969c-0.08983,-0.30472 -5.28907,1.57034 -5.37891,1.26563c-0.08983,-0.30472 0.08983,6.94925 0,6.64453c-0.08983,-0.30472 -3.39064,1.88675 -3.48047,1.58203c-0.08983,-0.30472 -9.08595,-1.59372 -9.17578,-1.89844c-0.08983,-0.30472 -2.75783,-8.23825 -2.84766,-8.54297c-0.08983,-0.30472 -4.02345,-2.54294 -4.11328,-2.84766c-0.08983,-0.30472 -4.02345,-3.17575 -4.11328,-3.48047c-0.08983,-0.30472 -2.12501,-5.3906 -2.21484,-5.69531c-0.08983,-0.30472 -5.92189,-7.92185 -6.01172,-8.22656c-0.08983,-0.30472 -1.4922,4.7344 -1.58203,4.42969c-0.08983,-0.30472 -5.92189,0.30472 -6.01172,0c-0.08983,-0.30472 -7.82033,0.93753 -7.91016,0.63281c-0.08983,-0.30472 -2.75783,4.10159 -2.84766,3.79688c-0.08983,-0.30472 -9.08595,-9.18747 -9.17578,-9.49219c-0.08983,-0.30472 -4.97267,6.94925 -5.0625,6.64453c-0.08983,-0.30472 0.40624,-11.08591 0.31641,-11.39063c-0.08983,-0.30472 -2.44142,-4.75778 -2.53125,-5.0625c-0.08983,-0.30472 -5.28908,0.62112 -5.37891,0.31641c-0.08983,-0.30472 0.72264,-6.33982 0.63281,-6.64453c-0.08983,-0.30472 3.25389,-3.49216 3.16406,-3.79688c-0.08983,-0.30472 -2.44142,-12.66794 -2.53125,-12.97266c-0.08983,-0.30472 -10.98439,-4.75778 -11.07422,-5.0625c-0.08983,-0.30472 -1.1758,-6.02341 -1.26563,-6.32813c-0.08983,-0.30472 6.10155,-2.22653 6.10155,-2.22653z" stroke-width="2" stroke="#ffffff" fill="#00bfbf"/>
  <path id="svg_4" d="m257.64452,361.53518c0,0 7.59375,-0.94922 7.50392,-1.25393c-0.08983,-0.30472 3.5703,6.63284 3.48047,6.32813c-0.08983,-0.30472 2.93749,-0.01169 2.84766,-0.31641c-0.08984,-0.30472 1.98827,-6.33982 1.89844,-6.64453c-0.08984,-0.30472 5.15234,-1.59372 5.0625,-1.89844c-0.08984,-0.30472 7.05077,7.26565 6.96094,6.96094c-0.08984,-0.30472 2.30468,4.10159 2.21484,3.79688c-0.08984,-0.30472 3.2539,-5.3906 3.16406,-5.69531c-0.08984,-0.30472 4.51952,-1.27732 4.42969,-1.58203c-0.08984,-0.30472 -1.4922,-9.82029 -1.58203,-10.125c-0.08984,-0.30471 4.83593,-0.6445 4.74609,-0.94922c-0.08984,-0.30471 5.78515,6.00003 5.69531,5.69531c-0.08984,-0.30471 4.20312,-0.3281 4.11328,-0.63281c-0.08984,-0.30471 4.20312,-1.59372 4.11328,-1.89844c-0.08984,-0.30471 5.78515,-1.91013 5.69531,-2.21484c-0.08984,-0.30471 2.62109,4.7344 2.53125,4.42969c-0.08984,-0.30471 -1.17579,6.31643 -1.26563,6.01172c-0.08984,-0.30472 1.03906,6.63284 0.94922,6.32813c-0.08984,-0.30472 -4.65626,1.57034 -4.74609,1.26563c-0.08984,-0.30472 3.57031,9.4805 3.48047,9.17578c-0.08984,-0.30472 -2.12501,4.418 -2.21484,4.11328c-0.08984,-0.30472 8.63281,1.57034 8.54297,1.26563c-0.08984,-0.30472 4.83593,2.20315 4.74609,1.89844c-0.08984,-0.30472 7.99999,-5.07419 7.91016,-5.37891c-0.08984,-0.30472 3.57031,2.51956 3.48047,2.21484c-0.08984,-0.30472 3.57031,8.53128 3.48047,8.22656c-0.08984,-0.30472 2.93749,4.10159 2.84766,3.79688c-0.08984,-0.30472 7.05078,-0.3281 6.96094,-0.63281c-0.08984,-0.30472 0.72265,6.94925 0.63281,6.64453c-0.08984,-0.30472 2.30468,6.63284 2.21484,6.32813c-0.08984,-0.30472 -3.39063,5.05081 -3.48047,4.74609c-0.08984,-0.30472 4.51953,6.31644 4.42969,6.01172c-0.08984,-0.30472 -6.55469,-2.54294 -6.64453,-2.84766c-0.08984,-0.30472 -7.18751,0.30472 -7.27734,0c-0.08984,-0.30472 -6.23829,0.62112 -6.32813,0.31641c-0.08984,-0.30472 -4.65626,-6.33981 -4.74609,-6.64453c-0.08984,-0.30472 -8.13673,1.88675 -8.22656,1.58203c-0.08984,-0.30472 -1.17579,6.63284 -1.26563,6.32813c-0.08984,-0.30472 -6.55469,0.62112 -6.64453,0.31641c-0.08984,-0.30472 -2.75782,6.94925 -2.84766,6.64453c-0.08984,-0.30472 -2.75782,5.05081 -2.84766,4.74609c-0.08984,-0.30472 -8.45313,1.25394 -8.54297,0.94922c-0.08984,-0.30472 1.67187,5.05081 1.98827,5.05081c0.31641,0 -7.91016,2.53125 -7.99999,2.22653c-0.08984,-0.30472 -0.22657,5.36722 -0.31641,5.0625c-0.08984,-0.30472 -2.75782,-4.75778 -2.84766,-5.0625c-0.08984,-0.30472 -4.02345,-2.54294 -4.11328,-2.84766c-0.08984,-0.30472 -0.85938,6.00003 -0.94922,5.69531c-0.08984,-0.30472 3.88671,4.73441 3.79688,4.42969c-0.08984,-0.30472 -0.85938,5.36722 -0.94922,5.0625c-0.08984,-0.30472 5.78515,2.83597 5.69531,2.53125c-0.08984,-0.30472 2.62109,5.36722 2.53125,5.0625c-0.08984,-0.30472 -4.02345,3.15237 -4.11328,2.84766c-0.08984,-0.30472 -10.66798,-1.59372 -10.75781,-1.89844c-0.08984,-0.30472 -7.50391,-0.32809 -7.59375,-0.63281c-0.08984,-0.30472 -8.76954,-9.82028 -8.85938,-10.125c-0.08983,-0.30472 -8.45313,-0.96091 -8.54297,-1.26563c-0.08983,-0.30472 -3.70704,-16.46481 -3.79688,-16.76953c-0.08983,-0.30472 -5.28907,-7.60544 -5.37891,-7.91016c-0.08983,-0.30472 -0.85938,-7.28903 -0.94922,-7.59375c-0.08983,-0.30472 0.40624,-17.41403 0.31641,-17.71875c-0.08983,-0.30472 3.5703,-4.75778 3.48047,-5.0625c-0.08983,-0.30472 -0.54298,-4.75778 -0.63281,-5.0625c-0.08983,-0.30472 3.5703,-4.44138 3.48047,-4.74609c-0.08983,-0.30472 -0.85938,-5.707 -0.94922,-6.01172c-0.08983,-0.30472 1.98827,-12.66794 1.98827,-12.66794z" stroke-width="2" stroke="#ffffff" fill="#119e9e"/>
  <path id="img5" d="m318.39452,352.14846l8.76954,-1.57034l5.0625,3.16406l1.26563,-5.37891l6.01172,-4.42969l-2.53125,-9.17578l2.21484,-10.125l2.53125,-6.01172l-0.63281,-9.17578l-1.89844,-5.69531l-6.96094,-3.79688c0,0 2.62109,-7.60544 2.93749,-6.97263c0.31641,0.63281 1.58203,3.16406 1.49219,2.85935c-0.08984,-0.30471 4.20312,3.78518 4.11328,3.48047c-0.08984,-0.30471 5.15234,-2.54294 5.0625,-2.84766c-0.08984,-0.30471 1.67187,3.15237 1.58203,2.84766c-0.08984,-0.30471 3.57031,2.20315 3.48047,1.89844c-0.08984,-0.30471 5.78515,-3.49216 5.69531,-3.79688c-0.08984,-0.30471 2.62109,1.88674 2.53125,1.58203c-0.08984,-0.30471 4.20312,-1.91013 4.11328,-2.21484c-0.08984,-0.30471 7.99999,6.63284 7.91016,6.32813c-0.08984,-0.30471 -3.70704,10.42971 -3.79688,10.125c-0.08984,-0.30471 3.57031,6.94924 3.48047,6.64453c-0.08984,-0.30471 1.98828,17.07425 1.89844,16.76953c-0.08984,-0.30471 2.62109,2.51956 2.53125,2.21484c-0.08984,-0.30471 5.46874,-0.6445 5.78515,-0.6445c0.31641,0 7.59375,9.49219 7.50391,9.18747c-0.08984,-0.30471 2.9375,2.83596 2.84766,2.53125c-0.08984,-0.30471 3.2539,-0.3281 3.16406,-0.63281c-0.08984,-0.30471 3.2539,2.83596 3.16406,2.53125c-0.08984,-0.30471 1.98828,1.88675 1.89844,1.58203c-0.08984,-0.30471 -0.54297,-5.07419 -0.63281,-5.37891c-0.08984,-0.30471 4.20312,0.93753 4.11328,0.63281c-0.08984,-0.30471 0.72265,9.7969 0.63281,9.49219c-0.08984,-0.30471 1.35546,5.05081 1.26563,4.74609c-0.08984,-0.30472 2.30468,1.88675 2.62109,1.88675c0.31641,0 -5.37891,1.89844 -5.46875,1.59372c-0.08984,-0.30472 -3.39063,5.05081 -3.48047,4.74609c-0.08984,-0.30472 2.62109,8.21487 2.53125,7.91016c-0.08984,-0.30472 -6.23829,4.10159 -6.32813,3.79688c-0.08984,-0.30472 3.2539,12.96097 3.16406,12.65625c-0.08984,-0.30472 -11.30079,2.51956 -11.39063,2.21484c-0.08984,-0.30472 -0.22657,5.68362 -0.31641,5.37891c-0.08984,-0.30472 -6.55469,3.46878 -6.64453,3.16406c-0.08984,-0.30472 3.2539,5.36722 3.16406,5.0625c-0.08984,-0.30472 -8.45313,2.83597 -8.54297,2.53125c-0.08984,-0.30472 -0.85938,2.83597 -0.94922,2.53125c-0.08984,-0.30472 -6.23829,-3.80856 -6.32813,-4.11328c-0.08984,-0.30472 -4.33985,-0.01169 -4.42969,-0.31641c-0.08984,-0.30472 -4.97266,-6.97263 -5.0625,-7.27734c-0.08984,-0.30472 -2.12501,-2.85935 -2.21484,-3.16406c-0.08984,-0.30472 -0.85938,-6.65622 -0.94922,-6.96094c-0.08984,-0.30472 -7.50391,0.93753 -7.59375,0.63281c-0.08984,-0.30472 -4.65626,-11.40232 -4.74609,-11.70703c-0.08984,-0.30472 -4.33985,-1.27732 -4.42969,-1.58203c-0.08984,-0.30472 -7.82032,4.418 -7.91016,4.11328c-0.08984,-0.30472 -13.19923,-2.54294 -13.28906,-2.84766c-0.08984,-0.30472 2.30468,-2.85935 2.21484,-3.16406c-0.08984,-0.30472 -2.75782,-8.87107 -2.84766,-9.17578c-0.08984,-0.30472 4.20312,-2.22653 4.11328,-2.53125c-0.08984,-0.30472 -0.54298,-4.75778 -0.63281,-5.0625c-0.08984,-0.30472 1.35546,-6.02341 1.26563,-6.32813c-0.08984,-0.30471 -2.12501,-4.75779 -2.12501,-4.75779z" stroke-linecap="null" stroke-linejoin="null" stroke-dasharray="null" stroke-width="2" stroke="#ffffff" fill="#5da6ef"/>
  <path id="svg_8" d="m108.40627,355.73434c0,0 -11.39063,-7.17188 -11.39063,-7.17188c0,0 2.53125,-5.0625 2.12498,-5.15622c-0.40627,-0.09372 -0.85935,-10.03128 -1.26563,-10.125c-0.40627,-0.09372 -10.1406,-11.71878 -10.54688,-11.8125c-0.40627,-0.09372 -9.71873,-4.96878 -10.125,-5.0625c-0.40627,-0.09372 5.46877,-9.60941 5.0625,-9.70313c-0.40627,-0.09372 -0.43748,-7.50003 -0.84375,-7.59375c-0.40627,-0.09372 8.4219,-2.01566 8.4219,-2.01566c0,0 10.125,-13.5 10.125,-13.5c0,0 4.21875,-0.42188 3.81248,-0.51559c-0.40627,-0.09372 2.93752,-4.12503 2.53125,-4.21875c-0.40627,-0.09372 5.46877,-0.75003 5.0625,-0.84375c-0.40627,-0.09372 3.78127,-7.07816 3.375,-7.17188c-0.40627,-0.09372 7.57815,1.35934 7.17188,1.26563c-0.40627,-0.09372 4.20315,-4.12503 3.79688,-4.21875c-0.40628,-0.09372 18.12503,-2.43753 17.70315,-1.59378c-0.42188,0.84375 3.79688,-6.32813 3.3906,-6.42184c-0.40628,-0.09372 6.7344,-5.39066 6.32813,-5.48438c-0.40628,-0.09372 4.62503,3.89059 4.21875,3.79688c-0.40628,-0.09372 5.89065,2.62497 5.48438,2.53125c-0.40628,-0.09372 8.4219,0.09372 8.01563,0c-0.40628,-0.09372 6.31253,5.15622 5.90625,5.0625c-0.40628,-0.09372 6.7344,-1.17191 6.32813,-1.26563c-0.40628,-0.09372 5.89065,7.26559 5.48438,7.17188c-0.40628,-0.09372 1.25003,4.31247 0.84375,4.21875c-0.40628,-0.09372 5.89065,6.84372 5.48438,6.75c-0.40628,-0.09372 9.68753,-1.59378 9.28125,-1.6875c-0.40628,-0.09372 4.20315,1.78122 3.79688,1.6875c-0.40628,-0.09372 7.15628,0.51559 6.75,0.42188c-0.40628,-0.09372 2.93753,8.53122 2.53125,8.4375c-0.40628,-0.09372 2.09378,3.04684 1.6719,3.04684c-0.42188,0 14.76563,2.10938 14.35935,2.01566c-0.40628,-0.09372 5.46878,5.15622 5.0625,5.0625c-0.40628,-0.09372 -2.96872,7.68747 -3.375,7.59375c-0.40628,-0.09372 -7.18747,0.09372 -7.59375,0c-0.40628,-0.09372 0.40628,8.10934 0,8.01563c-0.40628,-0.09372 1.6719,8.10934 2.09378,8.10934c0.42188,0 6.32813,8.85938 6.32813,8.85938c0,0 -5.90625,5.48438 -5.90625,5.48438c0,0 -5.48438,2.95313 -5.90625,2.95313c-0.42188,0 -5.90625,-1.6875 -6.31253,-1.78122c-0.40628,-0.09372 -0.0156,7.26559 -0.43747,7.68747c-0.42188,0.42188 -3.375,-1.26563 -3.78128,-1.35934c-0.40628,-0.09372 -5.49997,0.93747 -5.90625,0.84375c-0.40628,-0.09372 -6.7656,-0.75003 -7.17188,-0.84375c-0.40628,-0.09372 0.40628,-9.18753 0,-9.28125c-0.40628,-0.09372 -6.34372,3.04684 -6.75,2.95313c-0.40628,-0.09372 -7.18747,-4.96878 -7.59375,-5.0625c-0.40628,-0.09372 5.0469,-6.23441 4.64063,-6.32813c-0.40628,-0.09372 -15.2031,-1.17191 -15.2031,-1.17191c0,0 -5.90625,4.21875 -6.31253,4.12503c-0.40628,-0.09372 -7.18747,-5.81253 -7.59375,-5.90625c-0.40628,-0.09372 -7.18747,-1.17191 -7.59375,-1.26563c-0.40628,-0.09372 -13.93747,4.73434 -14.34375,4.64063c-0.40628,-0.09372 -18.15623,11.06247 -18.5625,10.96875c-0.40627,-0.09372 -3.81248,9.79684 -4.21875,9.70313c-0.40627,-0.09372 -8.4531,5.15622 -8.4531,5.15622z" stroke-linecap="null" stroke-linejoin="null" stroke-dasharray="null" stroke-width="2" stroke="#ffffff" fill="#96f7f7"/>
  <path stroke="#ffffff" id="img4" d="m171.54896,258.65939c0,0 0.43042,-6.00635 0.01592,-6.10165c-0.4145,-0.09531 5.57947,0.52433 5.16496,0.42902c-0.4145,-0.09531 2.56657,-7.19813 2.15207,-7.29342c-0.4145,-0.09531 -0.01592,-5.91106 -0.43042,-6.00635c-0.4145,-0.09531 4.28822,-0.76275 3.87373,-0.85805c-0.4145,-0.09531 3.42739,-3.76592 3.01289,-3.86123c-0.4145,-0.09531 10.31401,-3.33689 9.89952,-3.4322c-0.4145,-0.09531 5.57946,-5.05299 5.16496,-5.1483c-0.4145,-0.09531 1.27532,-7.62716 0.86083,-7.72246c-0.4145,-0.0953 -0.87674,-5.91106 -1.29125,-6.00635c-0.4145,-0.0953 6.00988,-1.6208 5.59538,-1.7161c-0.4145,-0.0953 5.57946,5.67263 5.16496,5.57733c-0.4145,-0.09531 4.71863,-1.6208 4.30414,-1.7161c-0.4145,-0.09531 2.13615,-5.48204 1.72165,-5.57733c-0.4145,-0.0953 5.57946,0.0953 5.16496,0c-0.4145,-0.0953 6.8707,1.38238 6.4562,1.28708c-0.4145,-0.09531 2.99699,4.38555 2.58248,4.29025c-0.4145,-0.09531 3.85781,-0.33373 3.44331,-0.42903c-0.4145,-0.0953 1.27533,-6.76911 0.86083,-6.8644c-0.4145,-0.0953 3.42739,-5.91106 3.0129,-6.00635c-0.4145,-0.0953 12.89649,-3.3369 13.3269,-3.3369c0.43042,0 4.73456,0 4.32005,-0.0953c-0.4145,-0.0953 8.16195,-1.19177 8.59236,-1.19177c0.43042,0 5.59538,0 5.18088,-0.0953c-0.4145,-0.09531 7.30112,-1.6208 6.88662,-1.7161c-0.4145,-0.09531 7.30112,5.2436 6.88662,5.1483c-0.4145,-0.09531 -1.73756,3.95652 -2.15206,3.86122c-0.41451,-0.0953 5.57947,1.8114 5.16496,1.7161c-0.41451,-0.0953 -0.44632,3.5275 -0.86083,3.4322c-0.41451,-0.0953 12.46609,0.95335 12.05158,0.85805c-0.41451,-0.0953 6.00988,1.8114 5.59537,1.7161c-0.4145,-0.0953 -0.44632,5.2436 -0.44632,5.2436c0,0 1.29125,6.00636 1.29125,6.00636c0,0 5.16496,2.14512 4.75046,2.04982c-0.41451,-0.09531 3.42739,5.2436 3.01289,5.1483c-0.4145,-0.09531 -1.30715,6.53068 -1.72165,6.43537c-0.4145,-0.09531 -1.73756,4.38556 -2.15206,4.29025c-0.41451,-0.09531 2.13616,5.24361 1.72165,5.1483c-0.41451,-0.09531 3.85781,5.67263 3.44331,5.57733m-2.16798,5.67263c0,0 2.58248,-4.71928 2.16798,-4.81458c-0.4145,-0.0953 -1.73756,17.25632 -1.73756,17.25632c0,0 1.29124,6.43538 1.29124,6.43538c0,0 -5.59538,4.29025 -6.00988,4.19495c-0.4145,-0.09531 -1.73756,7.38874 -2.15207,7.29343c-0.4145,-0.09531 -8.62418,-1.19177 -9.03869,-1.28708c-0.4145,-0.09531 -2.59839,8.67581 -3.0129,8.58051c-0.4145,-0.09531 -7.33294,-1.19177 -7.74745,-1.28708c-0.4145,-0.09531 4.71864,-6.7691 4.30414,-6.8644c-0.4145,-0.09531 -13.78915,3.09848 -14.20365,3.00318c-0.4145,-0.09531 -8.19377,-7.62715 -8.60827,-7.72246c-0.4145,-0.09531 -4.75046,-8.05618 -5.16496,-8.15148c-0.4145,-0.09531 -3.45922,0.09531 -3.87372,0c-0.4145,-0.09531 1.27533,-8.05618 0.86083,-8.15148c-0.4145,-0.0953 -6.47212,0.0953 -6.88662,0c-0.4145,-0.0953 -1.73757,-5.48202 -2.15207,-5.57733c-0.4145,-0.0953 -3.88963,0.95336 -4.30414,0.85805c-0.4145,-0.0953 -2.59839,4.81458 -3.0129,4.71928c-0.4145,-0.0953 0.4145,3.95653 0,3.86123c-0.4145,-0.0953 -9.0546,0.95336 -9.4691,0.85805c-0.4145,-0.09531 -2.16798,2.66946 -2.58248,2.57415c-0.4145,-0.09531 -7.76336,-2.04982 -8.17786,-2.14513c-0.4145,-0.09531 -6.47212,7.81776 -6.88662,7.72246c-0.4145,-0.09531 -7.33295,3.09848 -7.74745,3.00318c-0.4145,-0.09531 -10.77626,-0.33372 -11.19076,-0.42903c-0.4145,-0.09531 0.4145,-5.053 0,-5.1483c-0.4145,-0.09531 -4.32005,-5.48202 -4.73455,-5.57733c-0.4145,-0.09531 -6.47212,-5.48202 -6.88662,-5.57733c-0.4145,-0.0953 -5.61129,1.81141 -6.02579,1.7161c-0.4145,-0.0953 -6.04171,-8.05618 -6.45621,-8.15148c-0.4145,-0.0953 0.4145,-7.19813 0,-7.29343c-0.4145,-0.0953 5.14905,2.24043 4.73455,2.14513c-0.4145,-0.0953 2.13615,-7.19813 1.72165,-7.29343c-0.4145,-0.0953 -0.01591,-6.7691 -0.43041,-6.8644c-0.4145,-0.0953 5.14905,0.0953 4.73455,0c-0.4145,-0.0953 1.70574,-3.3369 1.29124,-3.4322c-0.4145,-0.0953 11.60526,-3.76592 11.19076,-3.86123c-0.4145,-0.0953 6.44029,-4.62397 6.02579,-4.71928c-0.4145,-0.0953 0.4145,-8.05618 0,-8.15148c-0.4145,-0.0953 -0.01591,-5.91105 -0.43041,-6.00635c-0.4145,-0.0953 5.57946,-2.47885 5.16496,-2.57415c-0.4145,-0.0953 4.28822,3.95653 3.87372,3.86123c-0.4145,-0.0953 6.00988,-0.33372 5.59538,-0.42903c-0.4145,-0.0953 2.99698,-3.76592 2.58248,-3.86123c-0.4145,-0.0953 4.71864,0.0953 4.30414,0c-0.4145,-0.0953 7.30112,1.8114 6.88662,1.7161c-0.4145,-0.0953 6.00988,3.52751 5.59538,3.4322c-0.4145,-0.0953 0.4145,-7.19813 0,-7.29343c-0.4145,-0.0953 2.99698,-7.19813 2.58248,-7.29343c-0.4145,-0.0953 15.04857,-2.90787 14.63407,-3.00318c-0.4145,-0.0953 4.28823,-0.33372 3.87372,-0.42903c-0.4145,-0.0953 10.31402,-0.76275 9.89951,-0.85805c-0.4145,-0.0953 5.14905,0.0953 4.73455,0c-0.4145,-0.0953 7.30112,-2.47885 6.88662,-2.57415c-0.4145,-0.0953 7.30112,6.53068 6.88662,6.43538c-0.4145,-0.0953 -3.88963,3.95653 -4.30414,3.86123c-0.4145,-0.0953 6.00988,0.95335 5.59538,0.85805c-0.4145,-0.0953 0.4145,3.95653 0,3.86123c-0.4145,-0.0953 12.03567,0.0953 11.62117,0c-0.4145,-0.0953 6.00988,1.8114 5.59538,1.7161c-0.4145,-0.0953 0.4145,6.53068 0,6.43538c-0.4145,-0.0953 0.84492,5.24361 0.43041,5.1483c-0.4145,-0.0953 5.57947,0.52433 5.16496,0.42903c-0.4145,-0.0953 3.85781,7.81776 3.44331,7.72246c-0.4145,-0.0953 -1.30715,7.38873 -1.72165,7.29343c-0.4145,-0.0953 -2.16798,4.38556 -2.58248,4.29025c-0.4145,-0.0953 3.4274,4.81458 3.0129,4.71928c-0.4145,-0.0953 0.84492,10.82094 0.84492,10.82094z" stroke-linecap="null" stroke-linejoin="null" stroke-dasharray="null" stroke-width="2" fill="#56aaff"/>
  <path id="img1" d="m204.1719,280.21872c0.42188,0.42188 7.59375,-2.53125 7.18748,-2.62497c-0.40628,-0.09372 6.31252,-10.03128 5.90625,-10.125c-0.40628,-0.09372 9.68752,2.62497 9.28125,2.53125c-0.40628,-0.09372 13.06252,-2.43753 12.65625,-2.53125c-0.40628,-0.09372 5.46877,-8.34378 5.0625,-8.4375c-0.40628,-0.09372 4.62502,4.73434 4.21875,4.64063c-0.40628,-0.09372 6.31252,0.51559 5.90625,0.42187c-0.40628,-0.09372 0.40627,7.26559 0,7.17188c-0.40628,-0.09372 5.0469,1.78121 4.64062,1.6875c-0.40628,-0.09372 9.68753,11.90621 9.28125,11.8125c-0.40628,-0.09372 4.20315,2.62496 3.79688,2.53125c-0.40628,-0.09372 11.7969,-2.85941 11.39062,-2.95313c-0.40628,-0.09372 -1.70309,5.15622 -2.10937,5.0625c-0.40629,-0.09372 6.31253,2.62497 5.90625,2.53125c-0.40629,-0.09372 -7.60935,4.31247 -8.01563,4.21875c-0.40628,-0.09372 5.46878,13.59372 5.0625,13.5c-0.40628,-0.09372 -0.85934,6.84372 -1.26562,6.75c-0.40629,-0.09372 -0.85935,5.15622 -1.26563,5.0625c-0.40628,-0.09372 -8.03122,0.09372 -8.4375,0c-0.40628,-0.09372 0.82815,12.32809 0.42188,12.23438c-0.40628,-0.09372 -6.34373,1.35934 -6.75,1.26562c-0.40628,-0.09372 -9.29685,-2.43753 -9.70313,-2.53125c-0.40628,-0.09372 -1.7031,-4.96878 -2.10937,-5.0625c-0.40628,-0.09372 -6.7656,0.09372 -7.17188,0c-0.40628,-0.09372 0.40628,-6.65628 0,-6.75c-0.40628,-0.09372 -7.18747,-11.29691 -7.59375,-11.39062c-0.40628,-0.09372 -3.3906,0.93746 -3.79687,0.84375c-0.40628,-0.09372 -1.28123,-4.96879 -1.6875,-5.0625c-0.40628,-0.09372 2.51565,-3.28129 2.10937,-3.375c-0.40628,-0.09372 -3.81247,-5.81254 -4.21875,-5.90625c-0.40628,-0.09372 -13.5156,-1.17191 -13.92187,-1.26563c-0.40628,-0.09372 -5.0781,-11.29691 -5.48438,-11.39062" stroke-linecap="null" stroke-linejoin="null" stroke-dasharray="null" stroke-width="2" stroke="#ffffff" fill="#5050f4"/>
  <path id="svg_14" d="m237.07812,335.06253c0,0 3.79688,2.53125 3.79688,2.53125c0,0 5.37891,-0.31641 5.37891,-0.31641c0,0 2.21484,3.48047 2.12501,3.17575c-0.08983,-0.30471 7.68358,-6.65622 7.59375,-6.96094c-0.08983,-0.30471 -0.85938,-6.02341 -0.94922,-6.32813c-0.08983,-0.30471 -6.5547,-0.3281 -6.64453,-0.63281c-0.08983,-0.30471 -0.54298,-6.02341 -0.63281,-6.32813c-0.08983,-0.30471 -6.5547,-10.4531 -6.64453,-10.75781c-0.08983,-0.30471 -4.33985,0.30471 -4.42969,0c-0.08983,-0.30471 -0.85938,-2.22654 -0.94922,-2.53125c-0.08983,-0.30471 -3.07423,1.57034 -3.16406,1.26563c-0.08983,-0.30471 -5.28907,0.62112 -5.37891,0.31641c-0.08983,-0.30471 0.08983,10.74612 0,10.44141c-0.08983,-0.30471 2.62108,6.00003 2.53125,5.69531c-0.08983,-0.30471 7.36718,10.42971 7.36718,10.42971z" stroke-linecap="null" stroke-linejoin="null" stroke-dasharray="null" stroke-width="2" stroke="#ffffff" fill="#00bfbf"/>
  <path id="img3" d="m257.01171,333.4805c0,-0.31641 8.22656,2.84766 8.13673,2.54294c-0.08983,-0.30471 8.6328,-1.59372 8.54297,-1.89844c-0.08984,-0.30471 -2.44142,5.36721 -2.53125,5.0625c-0.08983,-0.30471 7.68359,2.83596 7.68359,2.83596c0,0 6.64453,0 6.64453,0c0,0 3.48047,1.26563 3.39063,0.96091c-0.08984,-0.30471 5.46874,-1.27732 5.37891,-1.58203c-0.08984,-0.30471 5.15234,0.93753 5.0625,0.63281c-0.08984,-0.30471 1.98827,4.10159 1.89844,3.79688c-0.08984,-0.30471 -3.39063,4.418 -3.48047,4.11328c-0.08984,-0.30471 -4.33985,2.20315 -4.33985,2.20315c0,0 1.26563,10.125 1.26563,10.125c0,0 -3.79688,1.26563 -3.88671,0.96091c-0.08984,-0.30472 -3.07423,5.05081 -3.16406,4.74609c-0.08984,-0.30472 -9.08595,-8.87107 -9.17578,-9.17578c-0.08984,-0.30472 -4.33985,1.25393 -4.42969,0.94922c-0.08984,-0.30472 -3.39063,7.89847 -3.48047,7.59375c-0.08983,-0.30472 -3.39063,-0.01169 -3.48047,-0.31641c-0.08983,-0.30472 -1.4922,-4.75778 -1.58203,-5.0625c-0.08983,-0.30472 -8.13673,0.93753 -8.22656,0.63281c-0.08983,-0.30472 -0.22657,-5.07419 -0.31641,-5.37891c-0.08983,-0.30471 -3.07423,-4.44138 -3.16406,-4.74609c-0.08983,-0.30471 -8.13673,12.32815 -8.22656,12.02344c-0.08983,-0.30472 -4.97267,0.30472 -5.0625,0c-0.08983,-0.30472 -9.71876,6.00003 -9.80859,5.69531c-0.08983,-0.30472 -2.12501,-0.6445 -2.21484,-0.94922c-0.08983,-0.30472 1.03905,-3.49216 0.94922,-3.79688c-0.08983,-0.30472 -1.8086,-3.17575 -1.89844,-3.48047c-0.08983,-0.30472 -5.60548,2.83597 -5.69531,2.53125c-0.08983,-0.30472 -1.17579,-11.40232 -1.26563,-11.70703c-0.08983,-0.30471 -3.70704,-4.44138 -3.79688,-4.74609c-0.08983,-0.30471 1.35546,-7.28904 1.26563,-7.59375c-0.08983,-0.30471 6.10155,1.57034 6.01172,1.26563c-0.08983,-0.30471 11.79687,-7.28904 11.70703,-7.59375c-0.08983,-0.30471 4.51952,2.83596 4.42969,2.53125c-0.08983,-0.30471 6.10155,0.30471 6.01172,0c-0.08983,-0.30471 2.30468,3.15237 2.21484,2.84766c-0.08983,-0.30471 8.6328,-6.02341 8.6328,-6.02341z" stroke-linecap="null" stroke-linejoin="null" stroke-dasharray="null" stroke-width="2" stroke="#ffffff" fill="#1169c1"/>
  <path id="img2" d="m284.53905,309.43362c0,0 -5.0625,-12.97266 -5.15234,-13.27737c-0.08984,-0.30471 6.73437,-1.91013 6.64453,-2.21484c-0.08984,-0.30471 4.20312,-0.01169 4.11328,-0.31641c-0.08984,-0.30471 4.51952,-6.33982 4.83593,-6.65622c0.31641,-0.31641 5.37891,0.63281 5.28907,0.3281c-0.08984,-0.30471 4.20312,-7.60544 4.11328,-7.91016c-0.08984,-0.30471 4.51952,2.83596 4.42969,2.53125c-0.08984,-0.30471 3.57031,1.57034 3.48047,1.26563c-0.08984,-0.30471 4.51952,1.57034 4.42969,1.26563c-0.08984,-0.30471 5.46874,3.15237 5.37891,2.84766c-0.08984,-0.30471 0.08984,3.46878 0,3.16406c-0.08984,-0.30471 7.36718,6.63284 7.27734,6.32813c-0.08984,-0.30471 3.57031,3.15237 3.48047,2.84766c-0.08984,-0.30471 5.46874,2.83596 5.37891,2.53125c-0.08984,-0.30471 3.2539,11.06253 3.16406,10.75781c-0.08984,-0.30471 0.40624,6.63284 0.31641,6.32813c-0.08984,-0.30471 -4.97266,14.543 -5.0625,14.23828c-0.08984,-0.30471 2.62109,9.7969 2.53125,9.49219c-0.08984,-0.30471 -5.28907,4.10159 -5.37891,3.79688c-0.08984,-0.30471 -1.49219,6.00003 -1.58203,5.69531c-0.08984,-0.30471 -5.28907,-1.91013 -5.37891,-2.21484c-0.08984,-0.30471 -8.13673,0.62112 -8.13673,0.62112c0,0 -13.60547,6.32813 -13.60547,6.32813c0,0 -7.27734,-6.32813 -7.36718,-6.63284c-0.08984,-0.30471 3.5703,-4.75779 3.48047,-5.0625c-0.08984,-0.30471 -1.8086,-4.44138 -1.89844,-4.74609c-0.08984,-0.30471 -0.22657,-8.55466 -0.31641,-8.85938c-0.08984,-0.30471 -2.75782,-4.12497 -2.84766,-4.42969c-0.08984,-0.30471 2.62109,-6.65622 2.53125,-6.96094c-0.08984,-0.30471 -7.18751,-6.97263 -7.27734,-7.27734c-0.08984,-0.30471 -6.8711,-3.80857 -6.8711,-3.80857z" stroke-linecap="null" stroke-linejoin="null" stroke-dasharray="null" stroke-width="2" stroke="#ffffff" fill="#00007f"/>
  <path id="svg_17" d="m288.65234,312.91409l7.1875,3.49216l3.16407,4.42969c0,0 -3.39064,6.63284 -3.07423,6.63284c0.31641,0 3.16406,5.3789 3.07423,5.07419c-0.08984,-0.30472 0.72264,4.41799 0.63281,4.11328c-0.08984,-0.30471 -0.22657,5.05081 -0.31641,4.74609c-0.08983,-0.30471 -5.60547,-0.32809 -5.69531,-0.63281c-0.08984,-0.30471 -4.33985,1.25393 -4.42969,0.94922c-0.08983,-0.30471 -1.8086,-13.93357 -1.89843,-14.23828c-0.08984,-0.30472 2.30467,-4.75779 2.30467,-4.75779c0,0 -0.94921,-9.80859 -0.94921,-9.80859z" fill-opacity="0" stroke-linecap="null" stroke-linejoin="null" stroke-dasharray="null" stroke-width="2" stroke="#aa56ff" fill="#000000"/>
  <path id="svg_22" d="m288.65234,312.91409l7.1875,3.49216l3.16407,4.42969c0,0 -3.39064,6.63284 -3.07423,6.63284c0.31641,0 3.16406,5.3789 3.07423,5.07419c-0.08984,-0.30472 0.72264,4.41799 0.63281,4.11328c-0.08984,-0.30471 -0.22657,5.05081 -0.31641,4.74609c-0.08983,-0.30471 -5.60547,-0.32809 -5.69531,-0.63281c-0.08984,-0.30471 -4.33985,1.25393 -4.42969,0.94922c-0.08983,-0.30471 -1.8086,-13.93357 -1.89843,-14.23828c-0.08984,-0.30472 2.30467,-4.75779 2.30467,-4.75779c0,0 -0.94921,-9.80859 -0.94921,-9.80859z" fill-opacity="0" stroke-linecap="null" stroke-linejoin="null" stroke-dasharray="null" stroke-width="2" stroke="#aa56ff" fill="#000000"/>
  <path id="svg_23" d="m288.65234,312.91409l7.1875,3.49216l3.16407,4.42969c0,0 -3.39064,6.63284 -3.07423,6.63284c0.31641,0 3.16406,5.3789 3.07423,5.07419c-0.08984,-0.30472 0.72264,4.41799 0.63281,4.11328c-0.08984,-0.30471 -0.22657,5.05081 -0.31641,4.74609c-0.08983,-0.30471 -5.60547,-0.32809 -5.69531,-0.63281c-0.08984,-0.30471 -4.33985,1.25393 -4.42969,0.94922c-0.08983,-0.30471 -1.8086,-13.93357 -1.89843,-14.23828c-0.08984,-0.30472 2.30467,-4.75779 2.30467,-4.75779c0,0 -0.94921,-9.80859 -0.94921,-9.80859z" fill-opacity="0" stroke-linecap="null" stroke-linejoin="null" stroke-dasharray="null" stroke-width="2" stroke="#aa56ff" fill="#000000"/>
  <path id="svg_19" d="m272.37495,321.56252c0,0 9,-0.5625 8.87505,-0.93752c-0.12495,-0.37502 2.37495,-10.87498 2.25,-11.25c-0.12495,-0.37502 10.81245,4.87502 10.6875,4.5c-0.12495,-0.37502 4.06245,6.00002 4.06245,6.00002c0,0 -2.8125,7.3125 -2.8125,7.3125c0,0 3.375,5.625 3.375,5.625c0,0 0.5625,8.4375 0.5625,8.4375c0,0 -7.875,0.5625 -7.99995,0.18748c-0.12495,-0.37502 -4.37505,0.93752 -4.37505,0.93752c0,0 -6.75,0.5625 -6.75,0.5625c0,0 -9.5625,-3.9375 -9.68745,-4.31252c-0.12495,-0.37502 2.37495,-6.37498 2.37495,-6.37498c0,0 -0.5625,-10.6875 -0.5625,-10.6875z" stroke-linecap="null" stroke-linejoin="null" stroke-dasharray="null" stroke-width="2" stroke="#ffffff" fill="#5da6ef"/>
  <path id="img6" d="m307.81245,275.43752l-0.12495,-17.25002l-4.5,-18l6.75,-9l7.3125,0l7.3125,-3.9375l9.5625,5.0625l9.5625,-2.25l5.0625,7.3125l14.0625,-11.8125l6.75,1.6875l5.0625,-5.0625l4.5,1.6875l6.1875,-6.75l15.1875,24.75c0,0 4.62496,7.12502 4.62496,7.12502c0,0 7.875,11.25 7.875,11.25c0,0 -1.6875,8.4375 -1.81246,8.06248c-0.12496,-0.37502 3.49996,11.06252 3.375,10.6875c-0.12496,-0.37502 -3.81254,6.56252 -3.9375,6.1875c-0.12496,-0.37502 0.12496,5.43752 0,5.0625c-0.12496,-0.37502 -11.12504,0.93752 -11.25,0.5625c-0.12496,-0.37502 -7.18754,0.93752 -7.75004,0.93752c-0.5625,0 -8.4375,-3.375 -8.56246,-3.75002c-0.12496,-0.37502 -5.50004,6.56252 -5.625,6.1875c-0.12496,-0.37502 -6.62504,-0.74998 -6.75,-1.125c-0.12496,-0.37502 -3.81254,6.56252 -3.9375,6.1875c-0.12496,-0.37502 -7.75004,0.37502 -7.875,0c-0.12496,-0.37502 -8.31255,2.62502 -8.4375,2.25c-0.12495,-0.37502 -6.06255,-3.56248 -6.1875,-3.9375c-0.12495,-0.37502 -4.37505,2.06252 -4.5,1.6875c-0.12495,-0.37502 -5.50005,-3.56248 -5.625,-3.9375c-0.12495,-0.37502 -12.25005,-4.68748 -12.375,-5.0625c-0.12495,-0.37502 -13.37505,-9.18748 -13.5,-9.5625c-0.12495,-0.37502 -0.43755,-5.24998 -0.43755,-5.24998z" stroke-linecap="null" stroke-linejoin="null" stroke-dasharray="null" stroke-width="2" stroke="#ffffff" fill="#119e9e"/>
  <path stroke="#ffffff" id="svg_27" d="m379.81247,217.0167l5.78844,5.40078l7.69594,14.46642l5.32796,3.47194c0,0 7.82744,18.90281 7.82744,18.90281c0,0 0,9.25851 0,9.25851c0,0 3.55197,10.41582 3.42046,10.03003c-0.13151,-0.38579 -1.64448,10.22296 -1.77599,9.83717c-0.13151,-0.38579 9.01144,6.75102 8.87993,6.36523c-0.13151,-0.38579 9.60343,-4.82212 9.60343,-5.40078c0,-0.57866 9.47192,-5.78657 9.34041,-6.17236c-0.13151,-0.38579 10.19543,2.70042 10.06392,2.31463c-0.13151,-0.38579 6.05146,-0.77152 5.91995,-1.15731c-0.13151,-0.38579 6.64346,-4.24346 6.51195,-4.62925c-0.13151,-0.38579 6.64346,-0.19287 6.51195,-0.57866c-0.13151,-0.38579 6.64346,-8.29406 6.51195,-8.67985c-0.13151,-0.38579 6.05146,1.5431 5.91995,1.15731c-0.13151,-0.38579 4.27548,-4.24347 4.14397,-4.62925c-0.13151,-0.38579 7.82745,-2.50749 7.69594,-2.89328c-0.13151,-0.38579 5.45947,-0.19287 5.32796,-0.57866c-0.13151,-0.38579 0.72351,-9.45138 0.592,-9.83717c-0.13151,-0.38579 9.01144,-2.50749 8.87993,-2.89328c-0.13151,-0.38579 -2.82846,-10.03003 -2.95998,-10.41582c-0.13151,-0.38579 -5.78844,-0.77152 -5.91995,-1.15731c-0.13151,-0.38579 -3.42046,-14.08063 -3.55197,-14.46642c-0.13151,-0.38579 -8.15642,0.38579 -8.28793,0c-0.13151,-0.38579 -4.60445,-8.29406 -4.73596,-8.67985c-0.13151,-0.38579 -1.64448,-8.29406 -1.77599,-8.67985c-0.13151,-0.38579 -5.19645,-11.18735 -5.32796,-11.57314c-0.13151,-0.38579 -10.5244,-1.35018 -10.65591,-1.73597c-0.13151,-0.38579 -12.89238,3.27907 -13.02389,2.89328c-0.13151,-0.38579 -4.60445,3.85773 -4.73596,3.47194c-0.13151,-0.38579 -9.34041,3.27907 -9.47192,2.89328c-0.13151,-0.38579 -12.89238,3.27907 -13.02389,2.89328c-0.13151,-0.38579 -4.60445,13.11624 -4.73596,12.73045c-0.13151,-0.38579 -10.5244,8.48698 -10.65591,8.1012c-0.13151,-0.38579 3.68348,4.43639 3.55197,4.0506c-0.13151,-0.38579 -5.78844,6.17236 -5.78844,6.17236c0,0 -23.08781,-20.25299 -23.08781,-20.25299z" stroke-linecap="null" stroke-linejoin="null" stroke-dasharray="null" stroke-width="2" fill="#13bfbf"/>
  <path stroke="#ffffff" id="svg_29" d="m384.6209,218.12377c0,0 17.24184,17.37625 17.24184,17.37625c0,0 4.0231,0 4.0231,0c0,0 1.14946,-6.72629 1.02178,-7.09999c-0.12767,-0.3737 11.62223,-7.47364 11.49456,-7.84734c-0.12767,-0.3737 4.15077,-12.51836 4.0231,-12.89206c-0.12767,-0.3737 23.11679,-5.23154 22.98912,-5.60524c-0.12767,-0.3737 13.34642,-5.23154 13.21874,-5.60524c-0.12767,-0.3737 7.59914,0.3737 7.47146,0c-0.12767,-0.3737 3.57604,-5.23154 3.44837,-5.60524c-0.12767,-0.3737 -0.44705,-5.23154 -0.57473,-5.60524c-0.12767,-0.3737 5.87495,-4.67102 5.74728,-5.04472c-0.12767,-0.3737 -5.04488,-7.47364 -5.17255,-7.84734c-0.12767,-0.3737 -3.89542,-7.47364 -4.0231,-7.84734c-0.12767,-0.3737 -1.02178,-6.91312 -1.14946,-7.28681c-0.12767,-0.3737 8.17387,0.3737 8.04619,0c-0.12767,-0.3737 0.12767,-8.03416 0,-8.40786c-0.12767,-0.3737 10.47278,-6.91312 10.3451,-7.28681c-0.12767,-0.3737 6.44968,0.3737 6.32201,0c-0.12767,-0.3737 6.44968,-1.8684 6.32201,-2.2421c-0.12767,-0.3737 7.02441,5.41842 6.89674,5.04472c-0.12768,-0.3737 4.7255,-4.1105 4.59782,-4.48419c-0.12768,-0.3737 5.30023,-0.74735 5.17255,-1.12105c-0.12768,-0.3737 0.12768,-15.8815 0,-16.2552c-0.12768,-0.3737 3.57604,4.29737 3.44837,3.92367c-0.12768,-0.3737 4.15077,-7.47364 4.7255,-7.47364c0.57473,0 4.59782,1.68157 4.47015,1.30788c-0.12768,-0.3737 4.15077,-5.79207 4.0231,-6.16577c-0.12768,-0.3737 -11.36688,-2.42892 -11.49456,-2.80262c-0.12768,-0.3737 -8.49324,-2.98945 -8.62092,-3.36314c-0.12768,-0.3737 -14.24052,4.29737 -14.3682,3.92367c-0.12767,-0.3737 -2.74596,4.29737 -2.87364,3.92367c-0.12767,-0.3737 -14.24052,-2.42892 -14.3682,-2.80262c-0.12767,-0.3737 -5.04488,-0.74735 -5.17255,-1.12105c-0.12767,-0.3737 -14.24052,-6.35259 -14.3682,-6.72629c-0.12767,-0.3737 -10.79216,1.49475 -10.91983,1.12105c-0.12767,-0.3737 -12.51634,-2.42892 -12.64401,-2.80262c-0.12767,-0.3737 -11.36689,1.49474 -11.49456,1.12105c-0.12767,-0.3737 -10.79216,-0.74735 -10.91983,-1.12105c-0.12767,-0.3737 -9.6427,-12.51836 -9.77037,-12.89206c-0.12767,-0.3737 -2.74597,-7.47364 -2.87364,-7.84734c-0.12767,-0.3737 -5.61961,-6.35259 -5.74728,-6.72629c-0.12767,-0.3737 -9.6427,8.22103 -9.77037,7.84734c-0.12767,-0.3737 -5.04488,7.09999 -5.17255,6.72629c-0.12767,-0.3737 -7.91852,-2.42892 -8.04619,-2.80262c-0.12767,-0.3737 0.12767,17.18942 0,16.81572c-0.12767,-0.3737 -11.94161,0.93422 -12.06929,0.56052c-0.12767,-0.3737 -5.04488,9.34208 -5.17255,8.96839c-0.12767,-0.3737 -1.02178,11.02366 -1.14946,10.64996c-0.12767,-0.3737 2.42658,17.18942 2.29891,16.81572c-0.12767,-0.3737 -10.21743,5.41842 -10.3451,5.04472c-0.12767,-0.3737 5.87495,3.73684 5.74728,3.36314c-0.12767,-0.3737 3.00131,5.41842 2.87364,5.04472c-0.12767,-0.3737 -2.17124,13.26575 -2.29891,12.89206c-0.12767,-0.3737 6.44968,9.34208 6.32201,8.96839c-0.12767,-0.3737 0.12767,10.46313 0,10.08943c-0.12767,-0.3737 -4.47015,7.09999 -4.59782,6.72629c-0.12767,-0.3737 3.57604,9.90261 3.44837,9.52891c-0.12767,-0.3737 8.74859,7.09999 8.62092,6.72629c-0.12767,-0.3737 -9.06798,16.6289 -9.19565,16.2552c-0.12767,-0.3737 12.77169,-0.18682 12.64401,-0.56052c-0.12767,-0.3737 4.7255,-3.54997 4.59782,-3.92367c-0.12767,-0.3737 4.15077,1.49475 4.0231,1.12105c-0.12767,-0.3737 8.74859,-4.67102 8.74859,-4.67102z" stroke-linecap="null" stroke-linejoin="null" stroke-dasharray="null" stroke-width="2" fill="#a7ccf2"/>
  <path stroke="#ffffff" id="svg_30" d="m393.87496,76.31251l-9.3638,6.93749l-2.30889,7.3125l-9.23557,-2.8125l0,16.875l-12.69891,0l-4.61778,9.5625l-2.30889,10.6875l3.46334,14.625l-10.96724,5.625l6.34945,6.1875l0.57722,15.75l6.34945,11.8125l1.15445,9.5625l-5.77223,4.5c0,0 1.28267,11.62502 1.28267,11.06252c0,-0.5625 9.81279,6.1875 9.68457,5.81248c-0.12823,-0.37502 -4.48956,13.31252 -4.61778,12.9375c-0.12823,-0.37502 -9.68457,11.06252 -9.81279,10.6875c-0.12823,-0.37502 -8.53012,-1.87498 -8.65835,-2.25c-0.12823,-0.37502 -9.10734,1.50002 -9.23557,1.125c-0.12823,-0.37502 -10.83901,-5.24998 -10.96724,-5.625c-0.12822,-0.37502 -9.10734,3.75002 -9.23557,3.375c-0.12822,-0.37502 -8.53012,-0.18748 -8.65835,-0.5625c-0.12822,-0.37502 -7.9529,-9.18748 -8.08112,-9.5625c-0.12822,-0.37502 -0.449,-9.74998 -0.57722,-10.125c-0.12822,-0.37502 -15.4568,-2.99998 -15.58502,-3.375c-0.12822,-0.37502 -5.64401,-2.43748 -5.77223,-2.8125c-0.12822,-0.37502 0.70545,-5.24998 0.57722,-5.625c-0.12822,-0.37502 -7.37568,-4.68748 -7.5039,-5.0625c-0.12822,-0.37502 -5.64401,-0.74998 -5.77223,-1.125c-0.12822,-0.37502 1.85989,-15.93748 1.73167,-16.3125c-0.12822,-0.37502 0.12822,-8.62498 0,-9c-0.12822,-0.37502 12.24991,-3.56248 12.12168,-3.9375c-0.12822,-0.37502 9.94102,6.00002 9.81279,5.625c-0.12822,-0.37502 12.82713,-0.18748 12.69891,-0.5625c-0.12822,-0.37502 12.82713,-0.18748 12.69891,-0.5625c-0.12822,-0.37502 0.70545,-5.81248 0.57722,-6.1875c-0.12822,-0.37502 -9.68457,-5.24998 -9.81279,-5.625c-0.12822,-0.37502 7.63212,-9.18749 7.63212,-9.18749c0,0 5.77223,-7.3125 5.77223,-7.3125c0,0 2.88612,-11.25 2.75789,-11.62501c-0.12822,-0.37501 7.0549,-2.99999 6.92668,-3.375c-0.12822,-0.37501 -8.53012,-6.93749 -8.65835,-7.3125c-0.12822,-0.37501 -9.10734,-2.99999 -9.23557,-3.375c-0.12822,-0.37501 3.01434,-10.31249 2.88612,-10.6875c-0.12822,-0.37501 0.70545,-9.18749 0.57722,-9.5625c-0.12822,-0.37501 -7.37568,-8.06249 -7.5039,-8.4375c-0.12822,-0.37501 -3.91234,-8.62499 -4.04056,-9c-0.12822,-0.37501 -7.9529,-6.93749 -8.08112,-7.3125c-0.12822,-0.37501 -10.83901,-13.68749 -10.96724,-14.0625c-0.12822,-0.37501 -5.06678,-9.18749 -5.19501,-9.5625c-0.12822,-0.37501 4.16879,-6.37499 4.16879,-6.37499c0,0 9.81279,6.75 10.39002,6.75c0.57722,0 6.92668,2.25 6.79845,1.87499c-0.12822,-0.37501 8.78657,-0.18749 8.65835,-0.5625c-0.12822,-0.37501 -5.64401,-17.06249 -5.77223,-17.4375c-0.12822,-0.37501 9.36379,-3.56249 9.23557,-3.9375c-0.12822,-0.37501 11.09546,-0.74999 10.96724,-1.125c-0.12822,-0.37501 11.09546,2.62501 10.96724,2.25c-0.12823,-0.37501 5.90046,-9.18749 5.77223,-9.5625c-0.12823,-0.37501 1.85989,-12.56249 1.73167,-12.9375c-0.12823,-0.37501 11.67269,2.62501 11.54446,2.25c-0.12823,-0.37501 3.01434,10.50001 2.88612,10.125c-0.12823,-0.37501 -3.33511,9.37501 -3.46334,9c-0.12823,-0.37501 7.63213,15.00001 7.5039,14.625c-0.12823,-0.37501 5.90046,9.37501 5.77223,9c-0.12823,-0.37501 7.63213,1.50001 7.5039,1.125c-0.12823,-0.37501 5.90046,8.25001 5.77223,7.875c-0.12823,-0.37501 12.24991,8.81251 12.12168,8.4375c-0.12823,-0.37501 7.0549,10.50001 7.0549,10.50001z" stroke-linecap="null" stroke-linejoin="null" stroke-dasharray="null" stroke-width="2" fill="#c5f2f9"/>
  <path stroke="#ffffff" id="svg_31" d="m268.43745,197.43518l1.00005,-25.61347l12.9375,-5.86568l6.75,5.27911l9,0l13.5,0l5.625,-4.10597l-9,-8.21195l7.3125,-11.73135l3.375,-6.45224l3.375,-11.73135l4.5,-1.7597l-15.75,-13.49105l2.25,-11.73135l-6.75,-16.42389l-6.75,2.93284l-7.875,-5.27911l-9.5625,2.34627l-6.75,0.58657l-1.125,5.86568l-10.6875,-4.10597l-2.8125,-4.69254l-9.5625,11.73135l-4.5,6.45224l-5.0625,6.45224l0,11.73135l-6.1875,-1.17314l-3.9375,5.86568l-6.1875,4.10597l-3.9375,5.27911l-10.6875,1.7597l-8.4375,7.62538l-5.625,-7.62538l-9,-4.10597l-6.1875,4.69254l-11.25,2.93284l-3.9375,9.38508c0,0 -10.00005,2.15076 -10.00005,2.15076c0,0 -6.75,11.14478 -6.75,11.14478c0,0 6.1875,6.45224 6.1875,6.45224c0,0 0.5625,10.55822 0.5625,10.55822c0,0 6.75,11.73135 6.62505,11.34029c-0.12495,-0.39106 7.99995,10.36271 7.875,9.97165c-0.12495,-0.39106 4.06245,5.0836 3.9375,4.69254c-0.12495,-0.39106 10.81245,3.91047 10.6875,3.51941c-0.12495,-0.39106 0.68745,9.18958 0.5625,8.79851c-0.12495,-0.39106 4.62495,7.42987 4.5,7.03881c-0.12495,-0.39106 4.62495,9.18958 4.5,8.79851c-0.12495,-0.39106 5.18745,1.5642 5.0625,1.17314c-0.12495,-0.39106 2.37495,-6.64775 2.25,-7.03881c-0.12495,-0.39106 0.12495,-8.40745 0.12495,-8.40745c0,0 5.0625,0 4.93755,-0.39106c-0.12495,-0.39106 2.93745,5.0836 2.8125,4.69254c-0.12495,-0.39106 5.74995,-1.95521 5.625,-2.34627c-0.12495,-0.39106 2.93745,-6.06118 2.8125,-6.45224c-0.12495,-0.39106 12.49995,6.25674 12.375,5.86568c-0.12495,-0.39106 4.62495,-2.54178 4.5,-2.93284c-0.12495,-0.39106 2.37495,-11.34029 2.25,-11.73135c-0.12495,-0.39106 30.49995,-7.82088 30.49995,-7.82088z" stroke-linecap="null" stroke-linejoin="null" stroke-dasharray="null" stroke-width="2" fill="#c5f2f9"/>
 </g>
</svg>